<svg width="627" height="884" viewBox="0 0 627 884" fill="none" xmlns="http://www.w3.org/2000/svg">
<path d="M56.9987 812.998L0 173.726H626.328L569.266 812.897L312.78 884L56.9987 812.998Z" fill="#E44D26"/>
<path d="M313.164 829.653L520.416 772.195L569.181 225.997H313.164V829.653Z" fill="#F16529"/>
<path d="M313.164 463.094H209.41L202.243 382.808H313.164V304.403H116.548L118.427 325.437L137.698 541.497H313.164V463.094ZM313.164 666.716L312.819 666.81L225.495 643.231L219.912 580.702H141.203L152.189 703.808L312.805 748.392L313.164 748.291V666.716Z" fill="#EBEBEB"/>
<path d="M58.274 0H98.1199V39.3648H134.569V0H174.417V119.207H134.569V79.2904H98.1199V119.207H58.2769L58.274 0ZM226.819 39.5328H191.742V0H301.766V39.5328H266.672V119.207H226.82V39.5328H226.819ZM319.225 0H360.776L386.335 41.887L411.869 0H453.434V119.207H413.745V60.1204L386.33 102.506H385.646L358.212 60.1204V119.207H319.224V0H319.225ZM473.262 0H513.119V79.8057H569.158V119.207H473.262V0Z" fill="white"/>
<path d="M312.893 463.094V541.497H409.448L400.344 643.182L312.893 666.782V748.351L473.638 703.808L474.813 690.558L493.242 484.149L495.155 463.094H474.028H312.893ZM312.893 304.403V382.808H502.291L503.861 365.183L507.434 325.437L509.31 304.403H312.893Z" fill="white"/>
</svg>
