<svg width="638" height="898" viewBox="0 0 638 898" fill="none" xmlns="http://www.w3.org/2000/svg">
<path d="M638 176H0L59.8125 824.511L318.964 898L578.116 824.511L638 176Z" fill="#E6A329"/>
<path d="M319 229V843L528.928 783.539L580 229H319Z" fill="#F1BF22"/>
<path d="M486.252 309H163.483L141 551.253L141.467 549.748H415.679L406.736 652.24L319.247 677.361L230.465 651.846L225.149 589.813H144.556L156.048 713.771L319.247 760L482.517 713.771L505 470.478H213.98L217.715 389.417H419.63L422.647 435.861H503.958L486.252 309Z" fill="white"/>
<path d="M319 309H163.443L141 551.33L141.466 549.825H319V470.781H225.178L228.907 389.693H319V309ZM225.178 589.903H144.549L156.022 713.828L318.928 760V677.55L230.305 651.955L225.178 589.903Z" fill="#EBEBEB"/>
<path d="M256.865 80.2599H200V121H297.545V0H256.865V80.2599ZM438 0.646099H338.872V43.0015C352.109 56.2106 359.014 62.5639 378.509 81.6956H338.872V120.318H438V81.7674L398.363 43.0733H438V0.646099Z" fill="white"/>
</svg>
